<svg width="63" height="90" viewBox="0 0 63 90" fill="none" xmlns="http://www.w3.org/2000/svg">
<path d="M47.9761 26.242C46.7544 25.8633 45.5333 25.484 44.8754 25.1054C44.4998 23.8736 44.6873 20.8424 45.2509 18.0948C49.1974 17.5265 52.2981 14.1159 52.2981 10.0419V8.2418C52.2981 3.69468 48.6336 0 44.1236 0L18.3778 0.000660821C13.8678 0.000660821 10.2033 3.69534 10.2033 8.24246L10.2026 10.0426C10.2026 14.2111 13.3034 17.6216 17.2498 18.0954C17.7197 20.8424 18.0016 23.8743 17.6254 25.106C16.8736 25.4847 15.6518 25.864 14.5246 26.2426C7.85293 28.3268 -4.45582 32.1161 1.65191 53.3369C4.65905 63.7582 10.2965 70.484 15.4644 76.2629C12.8334 79.1995 11.1418 83.1784 11.1418 86.9681C11.1418 88.673 12.4572 90 14.1489 90H48.2573C49.1028 90 49.8546 89.7158 50.4183 89.0524C50.9819 88.4841 51.3582 87.7261 51.3582 86.8736C51.3582 83.179 49.6672 79.105 47.0355 76.1684C52.2036 70.3895 57.8409 63.663 60.848 53.2424C66.9559 32.2112 54.647 28.3254 47.9753 26.2412L47.9761 26.242ZM16.3108 8.33701C16.3108 7.20039 17.2507 6.25283 18.378 6.25283H44.1237C45.251 6.25283 46.1908 7.20046 46.1908 8.33701L46.1902 10.0426C46.1902 11.1792 45.2503 12.1268 44.123 12.1268H18.3773C17.2499 12.1268 16.3101 11.1791 16.3101 10.0426L16.3108 8.33701ZM55.0233 51.7258C52.2043 61.4835 46.7545 67.5466 41.4926 73.4202L40.4589 74.5568C39.8953 75.2202 39.6134 76.0727 39.7071 77.0197C39.8009 77.8722 40.2708 78.7246 41.0226 79.1985C42.7136 80.3351 43.9353 82.2303 44.5933 84.0298L17.908 84.0311C18.566 82.231 19.8815 80.3364 21.4787 79.1998C22.2305 78.726 22.7004 77.8735 22.7942 77.021C22.8879 76.1686 22.6061 75.2209 22.0424 74.5581L21.0088 73.4215C15.747 67.5467 10.297 61.4838 7.47801 51.7254C3.06177 36.2834 9.73327 34.1994 16.3106 32.2099C18.2842 31.6416 19.9752 31.0733 21.2907 30.1258C22.6061 29.2733 23.3578 27.7574 23.7335 25.6732C24.0154 23.7787 23.9216 21.031 23.5454 18.3784H38.9552C38.5797 21.1254 38.3916 23.7787 38.7671 25.6732C39.049 27.7574 39.8945 29.2733 41.21 30.1258C42.5254 31.0734 44.3108 31.5465 46.19 32.2099C52.6743 34.1997 59.4395 36.2839 55.0233 51.7254V51.7258Z" fill="#B2A18A"/>
</svg>
