<svg width="71" height="90" viewBox="0 0 71 90" fill="none" xmlns="http://www.w3.org/2000/svg">
<path d="M67.7727 0H9.68182C7.11365 0 4.65151 1.01594 2.83539 2.82398C1.02004 4.63274 0 7.08502 0 9.64286V43.3929V77.1429C0 79.7007 1.02004 82.153 2.83539 83.9618C4.65146 85.7698 7.11365 86.7858 9.68182 86.7858H12.9091C12.9091 87.9344 13.5243 88.9955 14.5227 89.5695C15.5212 90.1435 16.7516 90.1435 17.75 89.5695C18.7484 88.9955 19.3636 87.9344 19.3636 86.7858H67.7727C68.6285 86.7858 69.4498 86.4471 70.0549 85.8444C70.66 85.2418 71 84.4238 71 83.5715V3.21429C71 2.36193 70.66 1.544 70.0549 0.941327C69.4498 0.338657 68.6285 0 67.7727 0ZM9.68182 6.42858H64.5455V67.5H9.68182C8.58108 67.5086 7.48967 67.7045 6.45455 68.0783V9.64257C6.45455 8.79021 6.79457 7.97228 7.39967 7.36961C8.00478 6.76694 8.82602 6.42858 9.68182 6.42858ZM9.68182 80.3572C8.5285 80.3572 7.46311 79.7445 6.88681 78.75C6.31052 77.7556 6.31052 76.5302 6.88681 75.5358C7.46311 74.5413 8.52854 73.9286 9.68182 73.9286H12.9091V80.3572H9.68182ZM64.5455 80.3572H19.3636V73.9286H64.5455V80.3572ZM16.1364 16.0714C16.1364 15.2191 16.4764 14.4011 17.0815 13.7985C17.6866 13.1958 18.5078 12.8572 19.3636 12.8572H51.6364C52.7897 12.8572 53.8551 13.4699 54.4314 14.4643C55.0077 15.4587 55.0077 16.6842 54.4314 17.6786C53.8551 18.673 52.7896 19.2857 51.6364 19.2857H19.3636C18.5078 19.2857 17.6866 18.9471 17.0815 18.3444C16.4764 17.7417 16.1364 16.9238 16.1364 16.0714ZM51.6364 25.7143C51.6364 26.5667 51.2963 27.3846 50.6912 27.9873C50.0861 28.5899 49.2649 28.9286 48.4091 28.9286H22.5909C21.4376 28.9286 20.3722 28.3159 19.7959 27.3214C19.2196 26.327 19.2196 25.1016 19.7959 24.1072C20.3722 23.1127 21.4376 22.5 22.5909 22.5H48.4091C49.2649 22.5 50.0861 22.8387 50.6912 23.4413C51.2963 24.044 51.6364 24.8619 51.6364 25.7143Z" fill="#BBAC98"/>
</svg>
